# xmcd
#
# Track frame offsets: 
#        150
#        19862
#        45927
#        62525
#        77885
#        97720
#        114332
#        128737
#        142422
#        156540
#        177282
#        194830
#        212822
#        231435
#        246717
#        262695
#
# Disc length: 3704 seconds
#
# Revision: 0
# Processed by: cddbd v1.5.2PL0 Copyright (c) Steve Scherf et al.
# Submitted via: ExactAudioCopyFreeDBPlugin 1.0
#
DISCID=e60e7610
DTITLE=Various Artist - Back To The Memory - Love Sony For Duet Vol.12
DYEAR=1900
DGENRE=Country
TTITLE0=Conway Twitty and Joni Lee - Don't Cry Joni
TTITLE1=Peaches and Herb - Reunited
TTITLE2=Kenny Rogers and Kim Carnes - Don't Fall In Love With A Dream
TTITLE3=Barbra Streisand and Neil Diamond - You Don't Bring Me Flowers
TTITLE4=Barbra Streisand and Barry Gibb - Guilty
TTITLE5=Kenny Rogers and Larry Butler - Lucille
TTITLE6=Kenny Rogers and Dottle West - You Needed Me
TTITLE7=Donny and Marie - Morning Side Of The Mountain
TTITLE8=Juice Newton - All I Have To Do Is Dream
TTITLE9=Roberta Flack and Donny Hathaway - The Closer I Got To You
TTITLE10=Samantha Sang and Barry Gibb - Emotion
TTITLE11=Olivia and Cliff Richard - Suddenly
TTITLE12=Barbra Streisand and Barry Gibb - What Kind Of Fool
TTITLE13=Kenny Rogers and Dottie West - Let It Be Me
TTITLE14=Peabo Bryson and Roberta Flack - Tonight I Celetrate My Love
TTITLE15=The Bells - Stay Awhile
EXTD=
EXTT0=
EXTT1=
EXTT2=
EXTT3=
EXTT4=
EXTT5=
EXTT6=
EXTT7=
EXTT8=
EXTT9=
EXTT10=
EXTT11=
EXTT12=
EXTT13=
EXTT14=
EXTT15=
PLAYORDER=
